<svg viewBox="0 0 200 200" xmlns="http://www.w3.org/2000/svg">
  <path fill="#FF0066" d="M23.2,-38.5C34.3,-33.7,50.4,-36.1,63,-30.8C75.6,-25.6,84.7,-12.8,81.3,-1.9C77.9,8.9,62.1,17.8,49.3,22.6C36.4,27.3,26.4,27.9,18.7,36C11,44,5.5,59.6,-3.4,65.5C-12.3,71.4,-24.7,67.8,-34.6,61C-44.6,54.2,-52.1,44.3,-55.3,33.6C-58.5,23,-57.3,11.5,-58.9,-1C-60.6,-13.4,-65.1,-26.8,-62.7,-38.9C-60.3,-51,-51.1,-61.8,-39.5,-66.2C-27.9,-70.7,-14,-68.8,-4,-61.9C6,-55.1,12.1,-43.2,23.2,-38.5Z" transform="translate(100 100)" />
</svg>
